
        <svg xmlns="http://www.w3.org/2000/svg" xmlns:xlink="http://www.w3.org/1999/xlink" version="1.1" width="3210.5263157894738" 
        height="1299.892713355607" viewBox="0 0 3210.5263157894738 1299.892713355607">
			<rect fill="#ffffff" width="3210.5263157894738" height="1299.892713355607"/>
			<g transform="scale(10.526315789473685) translate(10, 10)">
				<defs id="SvgjsDefs8026"></defs><g id="SvgjsG8027" featureKey="symbolFeature-0" transform="matrix(1.9911956398656547,0,0,1.9911956398656547,0,-0.03982482429434062)" fill="#11ba17">    <title xmlns="http://www.w3.org/2000/svg">Asset 65LETTERS1</title>    <g xmlns="http://www.w3.org/2000/svg" id="Page-1" stroke="none" stroke-width="1" fill="none" fill-rule="evenodd">        <g id="Artboard" transform="translate(-2186.000000, -53.000000)" fill="#11ba17" fill-rule="nonzero">            <g id="Asset-65LETTERS1" transform="translate(2186.000000, 53.020000)">                <polygon id="Path" points="14.28 31.72 4.86 26.28 0 29.08 0 29.46 9.1 34.71"></polygon>                <path d="M17.26,9.96 C18.18,9.43 19.25,9.29 20.27,9.56 C20.78,9.7 21.25,9.93 21.66,10.24 C22.07,10.55 22.41,10.95 22.68,11.41 C23.21,12.33 23.35,13.4 23.08,14.42 C22.81,15.44 22.15,16.3 21.23,16.83 L17.03,19.25 L26.44,24.68 C29.28,22.88 31.3,20.12 32.18,16.86 C32.49,15.71 32.64,14.54 32.64,13.37 C32.64,11.05 32.03,8.76 30.84,6.7 C29.05,3.6 26.16,1.39 22.71,0.46 C21.56,0.15 20.39,0 19.22,0 C16.9,0 14.61,0.61 12.55,1.8 L0,9.05 L0,9.43 L9.1,14.68 L17.26,9.97 L17.26,9.96 Z" id="Path"></path>                <path d="M25.94,25.98 L25.08,25.49 L15.66,20.05 L7.73,15.47 L0,11.01 L0,21.89 L6.23,25.49 L15.65,30.93 L21.22,34.15 C23.11,35.24 23.76,37.67 22.67,39.57 C21.94,40.84 20.6,41.55 19.23,41.55 C18.56,41.55 17.88,41.38 17.25,41.02 L7.71,35.51 L0,31.05 L0,41.93 L12.55,49.17 C15.65,50.96 19.26,51.44 22.71,50.51 C26.17,49.58 29.05,47.37 30.84,44.27 C32.63,41.17 33.11,37.56 32.18,34.11 C31.25,30.66 29.04,27.77 25.94,25.98 Z" id="Path"></path>            </g>        </g>    </g></g><g id="SvgjsG8028" featureKey="nameFeature-0" transform="matrix(1.290655597152231,0,0,1.290655597152231,81.90242582831559,17.028392118957893)" fill="#3671b0"><path d="M17.84 24.48 c2.96 0.8 5.76 3.44 5.76 7.32 c0 5.08 -3.2 8.2 -10.16 8.2 l-11.04 0 l0 -28 l10.44 0 c5.8 0 8.72 3.28 8.72 7.04 c0 2.96 -1.92 4.64 -3.72 5.44 z M12.28 17.12 l-4.04 0 l0 5.64 l4.04 0 c2.48 0 3.48 -1.16 3.48 -2.84 c0 -1.8 -1.16 -2.8 -3.48 -2.8 z M13.12 34.88 c3.2 0 4.64 -1.32 4.64 -3.8 c0 -2.12 -1.44 -3.6 -4.88 -3.6 l-4.64 0 l0 7.4 l4.88 0 z M32.8 11.719999999999999 l0 28.28 l-5.72 0 l0 -28.28 l5.72 0 z M44.56 40.32 c-3.96 0 -7.88 -2.6 -7.88 -9.16 l0 -11.96 l5.72 0 l0 11.56 c0 3.4 1.32 4.56 3.52 4.56 c3.04 0 4.84 -2.88 5.28 -4.32 l0 -11.8 l5.72 0 l0 20.8 l-5.72 0 l0 -3.84 c-0.4 1.08 -2.64 4.16 -6.64 4.16 z M84.92 37 c-2.48 2.24 -5.8 3.4 -9.52 3.4 c-7.84 0 -14.6 -5.88 -14.6 -14.4 s6.76 -14.4 14.6 -14.4 c3.68 0 6.96 1.2 9.36 3.32 l-3.52 3.96 c-1.48 -1.04 -3.48 -1.8 -5.52 -1.8 c-5.04 0 -8.84 3.72 -8.84 8.92 s3.8 8.92 8.84 8.92 c2.12 0 4.2 -0.8 5.72 -2 z M98.63999999999999 18.84 c4.72 0 10.88 3.56 10.88 10.84 s-6.16 10.72 -10.88 10.72 s-10.92 -3.44 -10.92 -10.72 s6.2 -10.84 10.92 -10.84 z M98.63999999999999 23.92 c-2.6 0 -5.36 1.96 -5.36 5.76 c0 3.68 2.76 5.64 5.36 5.64 c2.56 0 5.36 -1.96 5.36 -5.64 c0 -3.8 -2.8 -5.76 -5.36 -5.76 z M125.35999999999999 18.88 c3.96 0 7.88 2.6 7.88 9.16 l0 11.96 l-5.72 0 l0 -11.56 c0 -3.4 -1.32 -4.56 -3.52 -4.56 c-3.04 0 -4.84 2.88 -5.28 4.32 l0 11.8 l-5.72 0 l0 -20.8 l5.72 0 l0 3.84 c0.4 -1.08 2.64 -4.16 6.64 -4.16 z M149.48 18.88 c3.96 0 7.88 2.6 7.88 9.16 l0 11.96 l-5.72 0 l0 -11.56 c0 -3.4 -1.32 -4.56 -3.52 -4.56 c-3.04 0 -4.84 2.88 -5.28 4.32 l0 11.8 l-5.72 0 l0 -20.8 l5.72 0 l0 3.84 c0.4 -1.08 2.64 -4.16 6.64 -4.16 z"></path></g>
			</g>
		</svg>
	